<?xml version="1.0" encoding="utf-8"?>
<svg version="1.1" xmlns:xlink="http://www.w3.org/1999/xlink" width="16px" height="14px" xmlns="http://www.w3.org/2000/svg">
  <g transform="matrix(1 0 0 1 0 -8 )">
    <path d="M 9.05567928730512 11.7662259615385  C 9.11210096510765 11.7129407051282  9.14031180400891 11.6470352564103  9.14031180400891 11.5685096153846  L 9.14031180400891 9.96995192307692  C 9.14031180400891 9.89142628205128  9.11210096510765 9.82552083333333  9.05567928730512 9.77223557692308  C 8.9992576095026 9.71895032051282  8.93244246473645 9.69230769230769  8.85523385300668 9.69230769230769  L 7.14476614699332 9.69230769230769  C 7.06755753526355 9.69230769230769  7.0007423904974 9.71895032051282  6.94432071269488 9.77223557692308  C 6.88789903489235 9.82552083333333  6.85968819599109 9.89142628205128  6.85968819599109 9.96995192307692  L 6.85968819599109 11.5685096153846  C 6.85968819599109 11.6470352564103  6.88789903489235 11.7129407051282  6.94432071269488 11.7662259615385  C 7.0007423904974 11.8195112179487  7.06755753526355 11.8461538461538  7.14476614699332 11.8461538461538  L 8.85523385300668 11.8461538461538  C 8.93244246473645 11.8461538461538  8.9992576095026 11.8195112179487  9.05567928730512 11.7662259615385  Z M 9.02895322939866 8.56069711538462  C 9.08537490720119 8.52423878205128  9.11655530809206 8.47796474358974  9.12249443207127 8.421875  L 9.28285077951002 4.56009615384615  C 9.28285077951002 4.49278846153846  9.25315515961396 4.4395032051282  9.19376391982183 4.40024038461538  C 9.11655530809206 4.33854166666667  9.0452858203415 4.30769230769231  8.97995545657016 4.30769230769231  L 7.02004454342984 4.30769230769231  C 6.9547141796585 4.30769230769231  6.88344469190794 4.33854166666667  6.80623608017817 4.40024038461538  C 6.74684484038604 4.4395032051282  6.71714922048998 4.49839743589743  6.71714922048998 4.57692307692308  L 6.86859688195991 8.421875  C 6.86859688195991 8.47796474358974  6.89829250185598 8.52423878205128  6.95768374164811 8.56069711538462  C 7.01707498144024 8.59715544871795  7.08834446919079 8.61538461538462  7.17149220489978 8.61538461538462  L 8.8195991091314 8.61538461538462  C 8.90274684484039 8.61538461538462  8.97253155159614 8.59715544871795  9.02895322939866 8.56069711538462  Z M 8.57906458797327 0.151442307692308  C 8.75723830734967 0.252403846153846  8.89680772086117 0.389823717948717  8.9977728285078 0.563701923076924  L 15.8396436525612 12.4098557692308  C 16.0475129918337 12.7632211538462  16.0415738678545 13.1165865384615  15.8218262806236 13.4699519230769  C 15.720861172977 13.6326121794872  15.5827765404603 13.7616185897436  15.4075723830735 13.8569711538462  C 15.2323682256867 13.9523237179487  15.0438010393467 14  14.8418708240535 14  L 1.15812917594655 14  C 0.956198960653304 14  0.767631774313289 13.9523237179487  0.592427616926503 13.8569711538462  C 0.417223459539718 13.7616185897436  0.279138827023014 13.6326121794872  0.178173719376392 13.4699519230769  C -0.0415738678544915 13.1165865384615  -0.0475129918337045 12.7632211538462  0.160356347438753 12.4098557692308  L 7.0022271714922 0.563701923076924  C 7.10319227913883 0.389823717948717  7.24276169265034 0.252403846153846  7.42093541202673 0.151442307692308  C 7.59910913140312 0.0504807692307698  7.79213066072754 0  8 0  C 8.20786933927246 0  8.40089086859688 0.0504807692307698  8.57906458797327 0.151442307692308  Z " fill-rule="nonzero" fill="#d81e06" stroke="none" transform="matrix(1 0 0 1 0 8 )" />
  </g>
</svg>