<?xml version="1.0" encoding="utf-8"?>
<svg version="1.1" xmlns:xlink="http://www.w3.org/1999/xlink" width="16px" height="16px" xmlns="http://www.w3.org/2000/svg">
  <g transform="matrix(1 0 0 1 -441 -92 )">
    <path d="M 5.37946428571429 5.72395833333333  C 5.60267857142857 5.984375  5.71428571428571 6.29861111111111  5.71428571428571 6.66666666666667  C 5.71428571428571 7.03472222222222  5.60267857142857 7.34895833333333  5.37946428571429 7.609375  C 5.15625 7.86979166666667  4.88690476190476 8  4.57142857142857 8  C 4.25595238095238 8  3.98660714285714 7.86979166666667  3.76339285714286 7.609375  C 3.54017857142857 7.34895833333333  3.42857142857143 7.03472222222222  3.42857142857143 6.66666666666667  C 3.42857142857143 6.29861111111111  3.54017857142857 5.984375  3.76339285714286 5.72395833333333  C 3.98660714285714 5.46354166666667  4.25595238095238 5.33333333333333  4.57142857142857 5.33333333333333  C 4.88690476190476 5.33333333333333  5.15625 5.46354166666667  5.37946428571429 5.72395833333333  Z M 8.80803571428571 5.72395833333333  C 9.03125 5.984375  9.14285714285714 6.29861111111111  9.14285714285714 6.66666666666667  C 9.14285714285714 7.03472222222222  9.03125 7.34895833333333  8.80803571428571 7.609375  C 8.58482142857143 7.86979166666667  8.31547619047619 8  8 8  C 7.68452380952381 8  7.41517857142857 7.86979166666667  7.19196428571429 7.609375  C 6.96875 7.34895833333333  6.85714285714286 7.03472222222222  6.85714285714286 6.66666666666667  C 6.85714285714286 6.29861111111111  6.96875 5.984375  7.19196428571429 5.72395833333333  C 7.41517857142857 5.46354166666667  7.68452380952381 5.33333333333333  8 5.33333333333333  C 8.31547619047619 5.33333333333333  8.58482142857143 5.46354166666667  8.80803571428571 5.72395833333333  Z M 12.2366071428571 5.72395833333333  C 12.4598214285714 5.984375  12.5714285714286 6.29861111111111  12.5714285714286 6.66666666666667  C 12.5714285714286 7.03472222222222  12.4598214285714 7.34895833333333  12.2366071428571 7.609375  C 12.0133928571429 7.86979166666667  11.7440476190476 8  11.4285714285714 8  C 11.1130952380952 8  10.84375 7.86979166666667  10.6205357142857 7.609375  C 10.3973214285714 7.34895833333333  10.2857142857143 7.03472222222222  10.2857142857143 6.66666666666667  C 10.2857142857143 6.29861111111111  10.3973214285714 5.984375  10.6205357142857 5.72395833333333  C 10.84375 5.46354166666667  11.1130952380952 5.33333333333333  11.4285714285714 5.33333333333333  C 11.7440476190476 5.33333333333333  12.0133928571429 5.46354166666667  12.2366071428571 5.72395833333333  Z M 11.40625 2.05729166666667  C 10.3497023809524 1.57465277777778  9.21428571428571 1.33333333333333  8 1.33333333333333  C 6.78571428571429 1.33333333333333  5.65029761904762 1.57465277777778  4.59375 2.05729166666667  C 3.53720238095238 2.53993055555556  2.69791666666667 3.19097222222222  2.07589285714286 4.01041666666667  C 1.45386904761905 4.82986111111111  1.14285714285714 5.71527777777778  1.14285714285714 6.66666666666667  C 1.14285714285714 7.44444444444444  1.35565476190476 8.18576388888889  1.78125 8.890625  C 2.20684523809524 9.59548611111111  2.80654761904762 10.2048611111111  3.58035714285714 10.71875  L 4.35714285714286 11.2395833333333  L 4.11607142857143 12.2395833333333  C 3.97321428571429 12.8715277777778  3.76488095238095 13.46875  3.49107142857143 14.03125  C 4.39583333333333 13.59375  5.21428571428571 13  5.94642857142857 12.25  L 6.33035714285714 11.8541666666667  L 6.83928571428571 11.9166666666667  C 7.25 11.9722222222222  7.63690476190476 12  8 12  C 9.21428571428571 12  10.3497023809524 11.7586805555556  11.40625 11.2760416666667  C 12.4627976190476 10.7934027777778  13.3020833333333 10.1423611111111  13.9241071428571 9.32291666666667  C 14.546130952381 8.50347222222222  14.8571428571429 7.61805555555556  14.8571428571429 6.66666666666667  C 14.8571428571429 5.71527777777778  14.546130952381 4.82986111111111  13.9241071428571 4.01041666666667  C 13.3020833333333 3.19097222222222  12.4627976190476 2.53993055555556  11.40625 2.05729166666667  Z M 15.3660714285714 4.078125  C 15.7886904761905 4.90104166666667  16 5.76388888888889  16 6.66666666666667  C 16 7.875  15.6428571428571 8.99131944444444  14.9285714285714 10.015625  C 14.2142857142857 11.0399305555556  13.2440476190476 11.8489583333333  12.0178571428571 12.4427083333333  C 10.7916666666667 13.0364583333333  9.45238095238095 13.3333333333333  8 13.3333333333333  C 7.58333333333333 13.3333333333333  7.15178571428571 13.3055555555556  6.70535714285714 13.25  C 5.52678571428571 14.4652777777778  4.1577380952381 15.3055555555556  2.59821428571429 15.7708333333333  C 2.30654761904762 15.8680555555556  1.9672619047619 15.9444444444444  1.58035714285714 16  L 1.53571428571429 16  C 1.44642857142857 16  1.36607142857143 15.9635416666667  1.29464285714286 15.890625  C 1.22321428571429 15.8177083333333  1.17559523809524 15.7222222222222  1.15178571428571 15.6041666666667  L 1.15178571428571 15.59375  C 1.13392857142857 15.5659722222222  1.13244047619048 15.5243055555556  1.14732142857143 15.46875  C 1.16220238095238 15.4131944444444  1.16815476190476 15.3784722222222  1.16517857142857 15.3645833333333  C 1.16220238095238 15.3506944444444  1.17559523809524 15.3177083333333  1.20535714285714 15.265625  L 1.25892857142857 15.171875  C 1.25892857142857 15.171875  1.2797619047619 15.1423611111111  1.32142857142857 15.0833333333333  C 1.36309523809524 15.0243055555556  1.38690476190476 14.9930555555556  1.39285714285714 14.9895833333333  C 1.43452380952381 14.9340277777778  1.52678571428571 14.8142361111111  1.66964285714286 14.6302083333333  C 1.8125 14.4461805555556  1.91517857142857 14.3142361111111  1.97767857142857 14.234375  C 2.04017857142857 14.1545138888889  2.13244047619048 14.0173611111111  2.25446428571429 13.8229166666667  C 2.3764880952381 13.6284722222222  2.47321428571429 13.4513888888889  2.54464285714286 13.2916666666667  C 2.61607142857143 13.1319444444444  2.69642857142857 12.9270833333333  2.78571428571429 12.6770833333333  C 2.875 12.4270833333333  2.95238095238095 12.1631944444444  3.01785714285714 11.8854166666667  C 2.08333333333333 11.2673611111111  1.34672619047619 10.5034722222222  0.808035714285714 9.59375  C 0.269345238095238 8.68402777777778  0 7.70833333333333  0 6.66666666666667  C 0 5.76388888888889  0.211309523809524 4.90104166666667  0.633928571428571 4.078125  C 1.05654761904762 3.25520833333333  1.625 2.54513888888889  2.33928571428571 1.94791666666667  C 3.05357142857143 1.35069444444444  3.90476190476191 0.876736111111109  4.89285714285714 0.526041666666666  C 5.88095238095238 0.175347222222221  6.91666666666667 0  8 0  C 9.08333333333333 0  10.1190476190476 0.175347222222221  11.1071428571429 0.526041666666666  C 12.0952380952381 0.876736111111109  12.9464285714286 1.35069444444444  13.6607142857143 1.94791666666667  C 14.375 2.54513888888889  14.9434523809524 3.25520833333333  15.3660714285714 4.078125  Z " fill-rule="nonzero" fill="#808080" stroke="none" transform="matrix(1 0 0 1 441 92 )" />
  </g>
</svg>