<?xml version="1.0" encoding="utf-8"?>
<svg version="1.1" xmlns:xlink="http://www.w3.org/1999/xlink" width="16px" height="12px" xmlns="http://www.w3.org/2000/svg">
  <g transform="matrix(1 0 0 1 -305 -94 )">
    <path d="M 11.8794642857143 9.40104166666667  C 13.0729166666667 8.55729166666667  14.0654761904762 7.42361111111111  14.8571428571429 6  C 13.952380952381 4.36111111111111  12.8184523809524 3.13541666666667  11.4553571428571 2.32291666666667  C 11.8184523809524 3.04513888888889  12 3.82638888888889  12 4.66666666666667  C 12 5.95138888888889  11.608630952381 7.05034722222222  10.8258928571429 7.96354166666667  C 10.0431547619048 8.87673611111111  9.10119047619048 9.33333333333333  8 9.33333333333333  C 6.89880952380952 9.33333333333333  5.95684523809524 8.87673611111111  5.17410714285714 7.96354166666667  C 4.39136904761905 7.05034722222222  4 5.95138888888889  4 4.66666666666667  C 4 3.82638888888889  4.18154761904762 3.04513888888889  4.54464285714286 2.32291666666667  C 3.18154761904762 3.13541666666667  2.04761904761905 4.36111111111111  1.14285714285714 6  C 1.93452380952381 7.42361111111111  2.92708333333333 8.55729166666667  4.12053571428571 9.40104166666667  C 5.3139880952381 10.2447916666667  6.60714285714286 10.6666666666667  8 10.6666666666667  C 9.39285714285714 10.6666666666667  10.6860119047619 10.2447916666667  11.8794642857143 9.40104166666667  Z M 8.30357142857143 2.35416666666667  C 8.38690476190476 2.25694444444444  8.42857142857143 2.13888888888889  8.42857142857143 2  C 8.42857142857143 1.86111111111111  8.38690476190476 1.74305555555555  8.30357142857143 1.64583333333333  C 8.2202380952381 1.54861111111111  8.11904761904762 1.5  8 1.5  C 7.25595238095238 1.5  6.61755952380952 1.81076388888889  6.08482142857143 2.43229166666667  C 5.55208333333333 3.05381944444444  5.28571428571429 3.79861111111111  5.28571428571429 4.66666666666667  C 5.28571428571429 4.80555555555556  5.32738095238095 4.92361111111111  5.41071428571429 5.02083333333333  C 5.49404761904762 5.11805555555555  5.5952380952381 5.16666666666667  5.71428571428571 5.16666666666667  C 5.83333333333333 5.16666666666667  5.93452380952381 5.11805555555555  6.01785714285714 5.02083333333333  C 6.10119047619048 4.92361111111111  6.14285714285714 4.80555555555556  6.14285714285714 4.66666666666667  C 6.14285714285714 4.06944444444444  6.32440476190476 3.55902777777778  6.6875 3.13541666666667  C 7.05059523809524 2.71180555555556  7.48809523809524 2.5  8 2.5  C 8.11904761904762 2.5  8.2202380952381 2.45138888888889  8.30357142857143 2.35416666666667  Z M 15.8214285714286 5.28125  C 15.9404761904762 5.52430555555556  16 5.76388888888889  16 6  C 16 6.23611111111111  15.9404761904762 6.47569444444444  15.8214285714286 6.71875  C 14.9880952380952 8.31597222222222  13.8675595238095 9.59548611111111  12.4598214285714 10.5572916666667  C 11.0520833333333 11.5190972222222  9.56547619047619 12  8 12  C 6.43452380952381 12  4.94791666666667 11.5173611111111  3.54017857142857 10.5520833333333  C 2.13244047619048 9.58680555555556  1.01190476190476 8.30902777777778  0.178571428571429 6.71875  C 0.0595238095238095 6.47569444444444  0 6.23611111111111  0 6  C 0 5.76388888888889  0.0595238095238095 5.52430555555556  0.178571428571429 5.28125  C 1.01190476190476 3.69097222222222  2.13244047619048 2.41319444444444  3.54017857142857 1.44791666666667  C 4.94791666666667 0.482638888888888  6.43452380952381 0  8 0  C 9.56547619047619 0  11.0520833333333 0.482638888888888  12.4598214285714 1.44791666666667  C 13.8675595238095 2.41319444444444  14.9880952380952 3.69097222222222  15.8214285714286 5.28125  Z " fill-rule="nonzero" fill="#5e5e5e" stroke="none" transform="matrix(1 0 0 1 305 94 )" />
  </g>
</svg>