<?xml version="1.0" encoding="utf-8"?>
<svg version="1.1" xmlns:xlink="http://www.w3.org/1999/xlink" width="16px" height="16px" xmlns="http://www.w3.org/2000/svg">
  <g>
    <path d="M 2.46875 13.3557692307692  C 2.60069444444444 13.2339743589744  2.66666666666667 13.0897435897436  2.66666666666667 12.9230769230769  C 2.66666666666667 12.7564102564103  2.60069444444444 12.6121794871795  2.46875 12.4903846153846  C 2.33680555555556 12.3685897435897  2.18055555555556 12.3076923076923  2 12.3076923076923  C 1.81944444444444 12.3076923076923  1.66319444444444 12.3685897435897  1.53125 12.4903846153846  C 1.39930555555556 12.6121794871795  1.33333333333333 12.7564102564103  1.33333333333333 12.9230769230769  C 1.33333333333333 13.0897435897436  1.39930555555556 13.2339743589744  1.53125 13.3557692307692  C 1.66319444444444 13.4775641025641  1.81944444444444 13.5384615384615  2 13.5384615384615  C 2.18055555555556 13.5384615384615  2.33680555555556 13.4775641025641  2.46875 13.3557692307692  Z M 14.4427083333333 8.16346153846154  C 14.5920138888889 7.86858974358974  14.6666666666667 7.60897435897436  14.6666666666667 7.38461538461539  C 14.6666666666667 7.05769230769231  14.53125 6.77083333333333  14.2604166666667 6.52403846153846  C 13.9895833333333 6.27724358974359  13.6805555555556 6.15384615384615  13.3333333333333 6.15384615384615  L 9.66666666666667 6.15384615384615  C 9.66666666666667 5.78205128205128  9.83333333333333 5.27083333333333  10.1666666666667 4.62019230769231  C 10.5 3.96955128205128  10.6666666666667 3.4551282051282  10.6666666666667 3.07692307692308  C 10.6666666666667 2.44871794871795  10.5555555555556 1.98397435897436  10.3333333333333 1.68269230769231  C 10.1111111111111 1.38141025641026  9.66666666666667 1.23076923076923  9 1.23076923076923  C 8.81944444444444 1.3974358974359  8.6875 1.66987179487179  8.60416666666667 2.04807692307692  C 8.52083333333333 2.42628205128205  8.41493055555556 2.82852564102564  8.28645833333333 3.25480769230769  C 8.15798611111111 3.68108974358974  7.95138888888889 4.03205128205128  7.66666666666667 4.30769230769231  C 7.51388888888889 4.4551282051282  7.24652777777778 4.74679487179487  6.86458333333333 5.18269230769231  C 6.83680555555556 5.21474358974359  6.75694444444445 5.31089743589743  6.625 5.47115384615385  C 6.49305555555556 5.63141025641026  6.38368055555556 5.76282051282051  6.296875 5.86538461538462  C 6.21006944444445 5.96794871794872  6.09027777777778 6.10416666666667  5.9375 6.27403846153846  C 5.78472222222222 6.44391025641026  5.64583333333333 6.5849358974359  5.52083333333333 6.69711538461539  C 5.39583333333333 6.80929487179487  5.26215277777778 6.92307692307692  5.11979166666667 7.03846153846154  C 4.97743055555556 7.15384615384615  4.83854166666667 7.24038461538462  4.703125 7.29807692307692  C 4.56770833333333 7.35576923076923  4.44444444444445 7.38461538461539  4.33333333333333 7.38461538461539  L 4 7.38461538461539  L 4 13.5384615384615  L 4.33333333333333 13.5384615384615  C 4.42361111111111 13.5384615384615  4.53298611111111 13.5480769230769  4.66145833333333 13.5673076923077  C 4.78993055555556 13.5865384615385  4.90451388888889 13.6073717948718  5.00520833333333 13.6298076923077  C 5.10590277777778 13.6522435897436  5.23784722222222 13.6875  5.40104166666667 13.7355769230769  C 5.56423611111111 13.7836538461538  5.68576388888889 13.8205128205128  5.765625 13.8461538461538  C 5.84548611111111 13.8717948717949  5.96875 13.911858974359  6.13541666666667 13.9663461538462  C 6.30208333333333 14.0208333333333  6.40277777777778 14.0544871794872  6.4375 14.0673076923077  C 7.90277777777778 14.5352564102564  9.09027777777778 14.7692307692308  10 14.7692307692308  L 11.2604166666667 14.7692307692308  C 12.59375 14.7692307692308  13.2604166666667 14.2339743589744  13.2604166666667 13.1634615384615  C 13.2604166666667 12.9967948717949  13.2430555555556 12.8173076923077  13.2083333333333 12.625  C 13.4166666666667 12.5224358974359  13.5815972222222 12.3541666666667  13.703125 12.1201923076923  C 13.8246527777778 11.8862179487179  13.8854166666667 11.650641025641  13.8854166666667 11.4134615384615  C 13.8854166666667 11.1762820512821  13.8229166666667 10.9551282051282  13.6979166666667 10.75  C 14.0659722222222 10.4294871794872  14.25 10.0480769230769  14.25 9.60576923076923  C 14.25 9.44551282051282  14.2152777777778 9.2676282051282  14.1458333333333 9.07211538461539  C 14.0763888888889 8.87660256410256  13.9895833333333 8.72435897435897  13.8854166666667 8.61538461538462  C 14.1076388888889 8.60897435897436  14.2934027777778 8.45833333333333  14.4427083333333 8.16346153846154  Z M 15.2083333333333 5.65384615384615  C 15.7361111111111 6.14102564102564  16 6.71474358974359  16 7.375  C 16 7.94551282051282  15.8298611111111 8.46794871794872  15.4895833333333 8.94230769230769  C 15.5520833333333 9.15384615384615  15.5833333333333 9.375  15.5833333333333 9.60576923076923  C 15.5833333333333 10.099358974359  15.4513888888889 10.5608974358974  15.1875 10.9903846153846  C 15.2083333333333 11.125  15.21875 11.2628205128205  15.21875 11.4038461538462  C 15.21875 12.0512820512821  15.0104166666667 12.6217948717949  14.59375 13.1153846153846  C 14.6006944444444 14.0064102564103  14.3055555555556 14.7099358974359  13.7083333333333 15.2259615384615  C 13.1111111111111 15.7419871794872  12.3229166666667 16  11.34375 16  L 10.96875 16  L 10 16  C 9.33333333333333 16  8.67534722222222 15.9278846153846  8.02604166666667 15.7836538461538  C 7.37673611111111 15.6394230769231  6.625 15.4294871794872  5.77083333333333 15.1538461538462  C 4.96527777777778 14.8974358974359  4.48611111111111 14.7692307692308  4.33333333333333 14.7692307692308  L 1.33333333333333 14.7692307692308  C 0.965277777777778 14.7692307692308  0.651041666666667 14.6490384615385  0.390625 14.4086538461538  C 0.130208333333333 14.1682692307692  0 13.8782051282051  0 13.5384615384615  L 0 7.38461538461539  C 0 7.04487179487179  0.130208333333333 6.75480769230769  0.390625 6.51442307692308  C 0.651041666666667 6.27403846153846  0.965277777777778 6.15384615384615  1.33333333333333 6.15384615384615  L 4.1875 6.15384615384615  C 4.4375 6  4.91319444444445 5.50320512820513  5.61458333333333 4.66346153846154  C 6.01736111111111 4.18269230769231  6.38888888888889 3.7724358974359  6.72916666666667 3.43269230769231  C 6.89583333333333 3.2724358974359  7.01909722222222 2.99839743589743  7.09895833333333 2.61057692307692  C 7.17881944444445 2.22275641025641  7.28472222222222 1.81730769230769  7.41666666666667 1.39423076923077  C 7.54861111111111 0.971153846153847  7.76388888888889 0.625  8.0625 0.35576923076923  C 8.33333333333333 0.118589743589745  8.64583333333333 0  9 0  C 9.58333333333333 0  10.1076388888889 0.104166666666668  10.5729166666667 0.3125  C 11.0381944444444 0.520833333333332  11.3923611111111 0.846153846153847  11.6354166666667 1.28846153846154  C 11.8784722222222 1.73076923076923  12 2.32692307692308  12 3.07692307692308  C 12 3.67307692307692  11.8333333333333 4.28846153846154  11.5 4.92307692307692  L 13.3333333333333 4.92307692307692  C 14.0555555555556 4.92307692307692  14.6805555555556 5.16666666666667  15.2083333333333 5.65384615384615  Z " fill-rule="nonzero" fill="#ff6500" stroke="none" />
  </g>
</svg>